Coordinates
version=1
nRows=24
nColumns=24
inDegrees=yes

Units are S.I. units (second, meters, Newtons, ...)
Angles are in degrees.

endheader
time	pelvis_tilt	pelvis_list	pelvis_rotation	pelvis_tx	pelvis_ty	pelvis_tz	hip_flexion_r	hip_adduction_r	hip_rotation_r	knee_angle_r	ankle_angle_r	subtalar_angle_r	mtp_angle_r	hip_flexion_l	hip_adduction_l	hip_rotation_l	knee_angle_l	ankle_angle_l	subtalar_angle_l	mtp_angle_l	lumbar_extension	lumbar_bending	lumbar_rotation
      0.53800000	      0.91958226	      5.93637271	     -2.53383282	     -0.82987708	      1.04988501	      0.32417353	     21.51581183	     -2.02648513	     -7.73733347	      2.26303495	      2.28398542	     -0.63261080	     -0.04424362	    -16.85361535	     11.21672267	     -2.49295873	     -3.21956789	      9.98987079	     -0.54328371	     -0.16295234	      3.26252985	     -3.55905281	     -2.53933937
      0.54216667	      0.87298669	      5.89089652	     -2.56395211	     -0.82397032	      1.04942100	      0.32436879	     21.50990752	     -1.91362919	     -7.68378937	      2.03056773	      2.26770166	     -0.62348618	     -0.04407406	    -16.96795016	     11.15865494	     -2.43836432	     -3.56873017	      9.96544956	     -0.55337789	     -0.16688566	      3.28257563	     -3.54658916	     -2.54682942
      0.54633333	      0.93282311	      5.86099394	     -2.67736882	     -0.81813705	      1.04907910	      0.32452582	     21.44817096	     -1.81422865	     -7.70046954	      1.64203699	      2.32557289	     -0.56378354	     -0.04360538	    -17.14720695	     11.15865456	     -2.56754795	     -3.98794114	      9.95736289	     -0.70340564	     -0.23420052	      3.32459542	     -3.38341945	     -2.66296959
      0.55050000	      0.93626842	      5.82846484	     -2.68395495	     -0.81225464	      1.04873903	      0.32458268	     21.40332547	     -1.74439798	     -7.62187939	      1.27801652	      2.30806457	     -0.54137539	     -0.04270335	    -17.27228940	     11.11443979	     -2.51929812	     -4.41700770	      9.91038089	     -0.71168480	     -0.25066465	      3.37370349	     -3.33282704	     -2.68407697
      0.55466667	      0.94624806	      5.79563473	     -2.71195541	     -0.80631139	      1.04843949	      0.32464830	     21.35774970	     -1.67191653	     -7.54300995	      0.86080935	      2.27914153	     -0.53390095	     -0.04155391	    -17.37615617	     11.07608112	     -2.48782625	     -4.90853043	      9.85841634	     -0.72499401	     -0.26574436	      3.41470166	     -3.26285161	     -2.70829397
      0.55883333	      0.96193433	      5.76340035	     -2.74366005	     -0.80035299	      1.04816917	      0.32470441	     21.30876602	     -1.60354599	     -7.45397392	      0.41467059	      2.23091621	     -0.53724112	     -0.04016011	    -17.47312701	     11.03815599	     -2.47387545	     -5.42410547	      9.79672814	     -0.73723108	     -0.27957914	      3.45123632	     -3.18294961	     -2.73424472
      0.56300000	      0.96774199	      5.71713601	     -2.83996226	     -0.79433812	      1.04786942	      0.32483067	     21.28147883	     -1.49997467	     -7.31018019	     -0.07897201	      2.07355737	     -0.59343852	     -0.03498430	    -17.54503245	     11.00338683	     -2.60350396	     -5.94045592	      9.64204563	     -0.74162249	     -0.32645287	      3.40179387	     -3.05780753	     -2.80706260
      0.56716667	      1.00249058	      5.67342935	     -2.83849723	     -0.78830452	      1.04771665	      0.32483057	     21.18072315	     -1.44069382	     -7.16702034	     -0.53286694	      1.97798183	     -0.61160428	     -0.03267762	    -17.62680692	     10.93845714	     -2.58516523	     -6.52546642	      9.56334371	     -0.73700505	     -0.33835745	      3.47442000	     -2.98977511	     -2.82301153
      0.57133333	      1.07171620	      5.58028857	     -2.98799062	     -0.78215707	      1.04758281	      0.32516854	     21.02376731	     -1.26559789	     -6.73258797	     -0.91272598	      1.38743367	     -1.04016833	     -0.01350162	    -17.72534066	     10.84729962	     -2.92084256	     -7.12279503	      9.25029580	     -0.54317248	     -0.42687602	      3.47631831	     -2.90467252	     -2.90541945
      0.57550000	      1.05450169	      5.54566687	     -3.00586570	     -0.77612159	      1.04742348	      0.32524844	     20.97618296	     -1.20588546	     -6.52111029	     -1.37596440	      1.18066821	     -1.25127551	     -0.00249270	    -17.69328217	     10.78350985	     -2.99094463	     -7.81186287	      9.16550284	     -0.45809848	     -0.45400337	      3.39199522	     -2.73738297	     -2.93867932
      0.57966667	      1.10151334	      5.45516767	     -3.07992495	     -0.76994751	      1.04739017	      0.32553849	     20.82074482	     -1.06297886	     -6.17736282	     -1.75295622	      0.58957354	     -1.60283728	      0.01680218	    -17.71311584	     10.65710651	     -3.31302800	     -8.52725453	      8.88859438	     -0.22133413	     -0.48907465	      3.43976430	     -2.66721122	     -2.95853479
      0.58383333	      1.15741231	      5.41057173	     -3.08970829	     -0.76388267	      1.04742902	      0.32553694	     20.67798709	     -1.02003578	     -6.01791515	     -2.20488864	      0.47651803	     -1.64827634	      0.02111534	    -17.72886913	     10.58114208	     -3.29890109	     -9.27682011	      8.80339878	     -0.19203639	     -0.49175661	      3.52116086	     -2.56610204	     -2.96650353
      0.58800000	      1.20294632	      5.30142750	     -3.28094339	     -0.75764257	      1.04742079	      0.32611183	     20.51734585	     -0.81019794	     -5.49549054	     -2.55062046	     -0.48844321	     -2.36485892	      0.05748802	    -17.69784405	     10.44364515	     -3.86246829	    -10.04508988	      8.37335712	      0.38351617	     -0.49636841	      3.56896174	     -2.43329193	     -2.98083728
      0.59216667	      1.21080516	      5.22133659	     -3.35208113	     -0.75148809	      1.04745895	      0.32658616	     20.37908327	     -0.66850598	     -5.02394755	     -2.89486733	     -1.07108262	     -3.12965372	      0.11572970	    -17.58280727	     10.28674786	     -4.29642162	    -10.93523893	      8.16368448	      0.86429745	     -0.46735571	      3.52441059	     -2.28975976	     -2.95281667
      0.59633333	      1.26755768	      5.15141364	     -3.30873853	     -0.74535774	      1.04767570	      0.32659841	     20.19214934	     -0.62372912	     -4.86196674	     -3.29541609	     -1.19427397	     -3.12331276	      0.12228647	    -17.51738685	     10.14244656	     -4.33844773	    -11.84290003	      8.04577441	      0.86979738	     -0.46329489	      3.58566019	     -2.19443609	     -2.95392376
      0.60050000	      1.29776787	      4.99223054	     -3.42807809	     -0.73894288	      1.04784764	      0.32722471	     19.98334501	     -0.38396376	     -4.34611897	     -3.55154541	     -2.15550131	     -3.75224077	      0.18895072	    -17.40117856	      9.89124707	     -4.94267061	    -12.76388081	      7.46354494	      1.49863194	     -0.37913731	      3.63924311	     -2.05297421	     -2.92559689
      0.60466667	      1.29099584	      4.91105017	     -3.45089105	     -0.73275892	      1.04801862	      0.32744379	     19.89623029	     -0.29238002	     -4.27172322	     -4.00434804	     -2.44055198	     -3.92377890	      0.20989398	    -17.19536847	      9.72199459	     -5.27563490	    -13.78899145	      7.18177363	      1.62110483	     -0.34741962	      3.51096445	     -1.88701596	     -2.94267392
      0.60883333	      1.36908162	      4.77850913	     -3.58981373	     -0.72653024	      1.04830048	      0.32818920	     19.64490171	     -0.07593371	     -3.59680103	     -4.28137750	     -3.28072646	     -5.04059265	      0.34475034	    -17.06103621	      9.48058254	     -5.85318961	    -14.82387227	      6.73593596	      2.33962314	     -0.08796653	      3.59123116	     -1.71382144	     -2.85216892
      0.61300000	      1.40980197	      4.67572857	     -3.64786758	     -0.72032280	      1.04859732	      0.32844303	     19.51081321	      0.03609166	     -3.55148038	     -4.74132733	     -3.66348516	     -5.08650197	      0.38272065	    -16.86151410	      9.28501742	     -6.22326069	    -15.90521467	      6.17048152	      2.55069641	     -0.01281960	      3.59474734	     -1.58187945	     -2.85819884
      0.61716667	      1.42629403	      4.53899901	     -3.61293624	     -0.71402931	      1.04896221	      0.32868315	     19.34456210	      0.16286433	     -3.43572570	     -5.12234845	     -3.93435668	     -5.12984132	      0.40406279	    -16.60761353	      9.00513041	     -6.53612531	    -17.06658726	      5.73173852	      2.68053658	      0.03470884	      3.53109673	     -1.43886186	     -2.86965220
      0.62133333	      1.53285680	      4.39009110	     -3.76836127	     -0.70783817	      1.04938101	      0.32942396	     19.08163370	      0.38369768	     -2.87366911	     -5.45317342	     -4.68042601	     -6.15836141	      0.55503904	    -16.42395746	      8.72976418	     -7.10653318	    -18.21353390	      4.94558520	      3.22621045	      0.46470364	      3.57222166	     -1.22434842	     -2.79859329
      0.62550000	      1.57750805	      4.26052854	     -3.80779908	     -0.70163931	      1.04978866	      0.32970209	     18.93500123	      0.51077411	     -2.87605154	     -5.92257735	     -4.94749617	     -6.17319971	      0.59688229	    -16.14171664	      8.46849544	     -7.46765539	    -19.43133008	      4.23981112	      3.47155128	      0.58273880	      3.56359373	     -1.05127670	     -2.80747697
      0.62966667	      1.60479066	      4.09064651	     -3.77662881	     -0.69538545	      1.05025321	      0.32999284	     18.75677278	      0.66856877	     -2.80553978	     -6.32068016	     -5.13777970	     -6.21094189	      0.62148057	    -15.81193144	      8.12290548	     -7.79066931	    -20.72873360	      3.66723732	      3.60410520	      0.65803877	      3.48187929	     -0.88665194	     -2.82069183
      0.63383333	      1.68991417	      3.94043646	     -3.87483530	     -0.68925867	      1.05073433	      0.33038150	     18.56143156	      0.83026296	     -2.67896617	     -6.78058424	     -5.45679739	     -6.45293213	      0.66315902	    -15.52310513	      7.83614559	     -8.17713801	    -21.98683919	      2.60572640	      3.93319419	      0.81031959	      3.53945547	     -0.62828029	     -2.83614513
